<?xml version="1.0" encoding="UTF-8" standalone="no"?>
<!-- Created with Serif DrawPlus 11, 0, 3, 23 (Feb 25, 14:12:55) (http://www.serif.com) -->
<svg version="1.1" xmlns="http://www.w3.org/2000/svg" xmlns:xlink="http://www.w3.org/1999/xlink" width="715.284" height="180.099">
	<g id="dp_group001" transform="matrix(1,0,0,1,-244.555,-275.229)">
		<text id="dp_text001" transform="matrix(1,0,0,1,438.491,348.385)" xml:space="preserve" fill="#f8f8f8" font-family="Segoe UI" font-size="68" font-weight="700" x="0" y="0.00133333">Winchester </text>
		<text id="dp_text002" transform="matrix(1,0,0,1,438.49,439.814)" xml:space="preserve" fill="#f8f8f8" font-family="Segoe UI" font-size="62" font-weight="400" x="0" y="0">Community Library </text>
		<path id="dp_path004" fill="white" fill-rule="evenodd" d="M 319.731,331.347 C 333.477,331.347 344.789,320.035 344.789,306.288 C 344.789,292.541 333.477,281.229 319.731,281.229 C 305.984,281.229 294.672,292.541 294.672,306.288 C 294.672,320.035 305.984,331.347 319.731,331.347 Z M 319.731,360.916 C 300.017,342.623 273.789,331.347 244.555,331.347 L 244.555,423.228 C 273.789,423.228 300.017,434.505 319.731,452.797 C 339.444,434.505 365.672,423.228 394.907,423.228 L 394.907,331.347 C 365.672,331.347 339.444,342.623 319.731,360.916 Z "/>
	</g>
</svg>